<svg width="20" height="20" viewBox="0 0 20 20" fill="none" xmlns="http://www.w3.org/2000/svg">
<path d="M10 2.00879C7.238 2.00879 5 4.23779 5 6.99879C5 11.7728 10 17.9988 10 17.9988C10 17.9988 15 11.7718 15 6.99879C15 4.23879 12.762 2.00879 10 2.00879ZM10 9.75979C9.28392 9.75979 8.59716 9.47533 8.09081 8.96898C7.58446 8.46263 7.3 7.77587 7.3 7.05979C7.3 6.3437 7.58446 5.65695 8.09081 5.1506C8.59716 4.64425 9.28392 4.35979 10 4.35979C10.7161 4.35979 11.4028 4.64425 11.9092 5.1506C12.4155 5.65695 12.7 6.3437 12.7 7.05979C12.7 7.77587 12.4155 8.46263 11.9092 8.96898C11.4028 9.47533 10.7161 9.75979 10 9.75979Z" fill="#026595"/>
</svg>
